# xmcd
#
# Track frame offsets: 
#        150
#        13600
#        26907
#        38467
#        51412
#        63440
#        75780
#        86075
#        102077
#        119905
#        130025
#        147240
#        160752
#        178140
#        208987
#        232887
#        246465
#        263640
#        278762
#        291100
#
# Disc length: 4200 seconds
#
# Revision: 3
# Processed by: cddbd v1.5.1PL0 Copyright (c) Steve Scherf et al.
# Submitted via: ExactAudioCopy v0.90b4
#
DISCID=1c106614
DTITLE=John Lee Hooker - Hobo Blues
DYEAR=1995
DGENRE=
TTITLE0=It´s My Own Fault Darling
TTITLE1=Women And Money
TTITLE2=Little Wheel
TTITLE3=Hobo Blues
TTITLE4=Crawlin´ King Snake
TTITLE5=I´m In The Mood
TTITLE6=Maudie
TTITLE7=My First Wife Left Me
TTITLE8=Wednesday Evening Blues
TTITLE9=Want Ad Blues
TTITLE10=Blues Before Sunrise
TTITLE11=Stella Mae
TTITLE12=Peace Lovin´ Man
TTITLE13=Let´s Go Out Tonight
TTITLE14=I Put My Trust In You
TTITLE15=One Bourbon, One Scotch, One Beer
TTITLE16=You Know, I Know
TTITLE17=I´ll Never Trust Your Love Again
TTITLE18=In The Mood
TTITLE19=The Waterfront
EXTD=
EXTT0=
EXTT1=
EXTT2=
EXTT3=
EXTT4=
EXTT5=
EXTT6=
EXTT7=
EXTT8=
EXTT9=
EXTT10=
EXTT11=
EXTT12=
EXTT13=
EXTT14=
EXTT15=
EXTT16=
EXTT17=
EXTT18=
EXTT19=
PLAYORDER=
